<svg data-v-423bf9ae="" xmlns="http://www.w3.org/2000/svg" viewBox="0 0 371.66732777932157 60" class="font"><!----><!----><!----><g data-v-423bf9ae="" id="7fa650f8-7329-43c0-8761-e74edce5dcdf" fill="black" transform="matrix(3.925159967842349,0,0,3.925159967842349,4.637298720347957,-8.439094782030637)"><path d="M5.09 12.41L5.09 12.12L5.09 12.12Q5.09 11.20 5.61 9.29L5.61 9.29L5.61 9.29Q3.96 9.33 3.09 9.39L3.09 9.39L3.09 9.39Q2.82 9.87 2.60 10.31L2.60 10.31L2.18 11.15L2.18 11.15Q1.34 12.80 0.67 13.33L0.67 13.33L0.67 13.33Q0.16 13.74-0.42 13.74L-0.42 13.74L-0.42 13.74Q-0.85 13.74-1.08 13.45L-1.08 13.45L-1.08 13.45Q-1.16 13.34-1.18 13.23L-1.18 13.23L-1.18 13.23Q-1.19 13.13-1.13 13.09L-1.13 13.09L-1.13 13.09Q-0.34 12.80 0.15 12.20L0.15 12.20L0.15 12.20Q0.58 11.66 1.01 10.88L1.01 10.88L1.78 9.50L1.35 9.56L1.35 9.56Q0.94 9.63 0.94 9.43L0.94 9.43L0.94 9.43Q0.94 9.22 1.19 9.04L1.19 9.04L1.19 9.04Q1.62 8.72 2.03 8.61L2.03 8.61L2.32 8.54L2.32 8.54Q3.45 6.69 4.04 5.95L4.04 5.95L4.04 5.95Q4.63 5.22 5.12 4.72L5.12 4.72L5.12 4.72Q5.61 4.23 6.15 3.86L6.15 3.86L6.15 3.86Q7.33 3.04 8.48 3.04L8.48 3.04L8.48 3.04Q8.83 3.04 8.95 3.19L8.95 3.19L8.95 3.19Q9.15 3.41 9.08 3.67L9.08 3.67L9.08 3.67Q9.00 3.92 8.83 4.40L8.83 4.40L8.83 4.40Q7.74 7.38 7.50 8.09L7.50 8.09L7.50 8.09Q7.61 8.09 7.70 8.09L7.70 8.09L7.85 8.09L7.85 8.09Q8.61 8.09 8.67 8.24L8.67 8.24L8.67 8.24Q8.68 8.29 8.68 8.41L8.68 8.41L8.68 8.41Q8.68 8.54 8.60 8.70L8.60 8.70L8.60 8.70Q8.52 8.87 8.35 8.98L8.35 8.98L8.35 8.98Q7.98 9.23 7.13 9.27L7.13 9.27L7.13 9.27Q6.67 10.88 6.60 11.49L6.60 11.49L6.60 11.49Q6.54 12.11 6.64 12.32L6.64 12.32L6.64 12.32Q6.75 12.54 6.94 12.54L6.94 12.54L6.94 12.54Q7.14 12.54 7.26 12.50L7.26 12.50L7.26 12.50Q7.38 12.46 7.48 12.41L7.48 12.41L7.66 12.33L7.66 12.33Q7.72 12.29 7.80 12.29L7.80 12.29L7.80 12.29Q7.87 12.29 7.92 12.38L7.92 12.38L7.92 12.38Q7.96 12.48 7.96 12.63L7.96 12.63L7.96 12.63Q7.96 12.78 7.84 12.98L7.84 12.98L7.84 12.98Q7.71 13.19 7.51 13.36L7.51 13.36L7.51 13.36Q7.03 13.74 6.43 13.74L6.43 13.74L6.43 13.74Q5.50 13.74 5.20 12.92L5.20 12.92L5.20 12.92Q5.09 12.63 5.09 12.41L5.09 12.41ZM4.25 7.40L3.72 8.31L3.72 8.31Q4.94 8.15 5.97 8.12L5.97 8.12L5.97 8.12Q6.17 7.53 6.38 6.96L6.38 6.96L6.81 5.87L6.81 5.87Q7.03 5.35 7.24 4.88L7.24 4.88L7.64 4.04L7.64 4.04Q6.21 4.41 4.83 6.49L4.83 6.49L4.83 6.49Q4.53 6.93 4.25 7.40L4.25 7.40ZM14.05 7.89L14.05 7.89L14.05 7.89Q13.67 7.89 12.70 9.04L12.70 9.04L12.13 9.73L11.04 11.16L11.04 11.16Q10.64 11.92 10.42 12.41L10.42 12.41L10.05 13.21L10.05 13.21Q9.91 13.50 9.80 13.62L9.80 13.62L9.80 13.62Q9.69 13.74 9.51 13.74L9.51 13.74L9.51 13.74Q9.33 13.74 9.16 13.68L9.16 13.68L9.16 13.68Q9.00 13.61 8.87 13.51L8.87 13.51L8.87 13.51Q8.61 13.29 8.61 13.03L8.61 13.03L8.61 13.03Q8.61 12.93 8.76 12.63L8.76 12.63L9.03 12.07L9.03 12.07Q10.31 9.44 11.35 5.40L11.35 5.40L11.35 5.40Q11.73 3.91 11.90 2.72L11.90 2.72L11.90 2.72Q11.98 2.15 12.46 2.15L12.46 2.15L12.46 2.15Q12.78 2.15 12.98 2.30L12.98 2.30L12.98 2.30Q13.38 2.59 13.36 2.93L13.36 2.93L13.36 2.93Q13.35 3.26 13.27 3.68L13.27 3.68L13.27 3.68Q13.19 4.09 13.06 4.58L13.06 4.58L13.06 4.58Q12.93 5.07 12.76 5.61L12.76 5.61L12.76 5.61Q12.31 6.99 12.09 7.59L12.09 7.59L12.09 7.59Q11.42 9.43 11.27 9.75L11.27 9.75L11.27 9.75Q11.37 9.63 11.53 9.41L11.53 9.41L11.53 9.41Q12.78 7.78 13.07 7.46L13.07 7.46L13.07 7.46Q13.36 7.14 13.57 6.97L13.57 6.97L13.57 6.97Q14 6.60 14.66 6.60L14.66 6.60L14.66 6.60Q15.20 6.60 15.53 6.96L15.53 6.96L15.53 6.96Q15.84 7.31 15.84 7.72L15.84 7.72L15.84 7.72Q15.84 8.13 15.75 8.47L15.75 8.47L15.75 8.47Q15.65 8.80 15.51 9.14L15.51 9.14L15.51 9.14Q15.37 9.48 15.20 9.84L15.20 9.84L14.85 10.56L14.85 10.56Q14.38 11.65 14.38 12.17L14.38 12.17L14.38 12.17Q14.38 12.54 14.68 12.54L14.68 12.54L14.68 12.54Q14.96 12.54 15.20 12.42L15.20 12.42L15.20 12.42Q15.44 12.30 15.50 12.30L15.50 12.30L15.50 12.30Q15.65 12.30 15.65 12.44L15.65 12.44L15.65 12.44Q15.65 13.05 15.03 13.46L15.03 13.46L15.03 13.46Q14.61 13.74 14.26 13.74L14.26 13.74L14.26 13.74Q13.91 13.74 13.68 13.67L13.68 13.67L13.68 13.67Q13.45 13.60 13.28 13.43L13.28 13.43L13.28 13.43Q12.87 13.06 12.87 12.35L12.87 12.35L12.87 12.35Q12.87 11.57 13.38 10.40L13.38 10.40L14.12 8.83L14.12 8.83Q14.33 8.39 14.33 8.14L14.33 8.14L14.33 8.14Q14.33 7.89 14.05 7.89ZM22.04 7.89L22.04 7.89L22.04 7.89Q21.64 7.89 20.59 9.04L20.59 9.04L20.59 9.04Q19.80 9.93 19.45 10.38L19.45 10.38L18.83 11.16L18.83 11.16Q18.44 11.92 18.21 12.41L18.21 12.41L17.84 13.21L17.84 13.21Q17.70 13.50 17.59 13.62L17.59 13.62L17.59 13.62Q17.49 13.74 17.31 13.74L17.31 13.74L17.31 13.74Q17.12 13.74 16.96 13.68L16.96 13.68L16.96 13.68Q16.79 13.61 16.67 13.51L16.67 13.51L16.67 13.51Q16.41 13.29 16.41 13.03L16.41 13.03L16.41 13.03Q16.41 12.93 16.56 12.63L16.56 12.63L16.82 12.07L16.82 12.07Q16.94 11.83 17.10 11.44L17.10 11.44L17.49 10.51L17.49 10.51Q18.29 8.49 18.29 7.90L18.29 7.90L18.29 7.90Q18.29 7.59 18.09 7.44L18.09 7.44L17.95 7.34L17.95 7.34Q17.88 7.29 17.88 7.17L17.88 7.17L17.88 7.17Q17.88 7.05 17.98 6.95L17.98 6.95L17.98 6.95Q18.07 6.84 18.22 6.75L18.22 6.75L18.22 6.75Q18.53 6.60 18.84 6.60L18.84 6.60L18.84 6.60Q19.15 6.60 19.33 6.67L19.33 6.67L19.33 6.67Q19.50 6.73 19.63 6.85L19.63 6.85L19.63 6.85Q19.89 7.09 19.89 7.35L19.89 7.35L19.89 7.35Q19.89 7.61 19.82 7.87L19.82 7.87L19.82 7.87Q19.76 8.13 19.65 8.40L19.65 8.40L19.65 8.40Q19.55 8.67 19.43 8.93L19.43 8.93L19.43 8.93Q19.16 9.52 19.10 9.65L19.10 9.65L19.10 9.65Q19.03 9.78 19.06 9.75L19.06 9.75L19.06 9.75Q20.31 8.13 20.56 7.83L20.56 7.83L20.56 7.83Q21.09 7.23 21.38 7L21.38 7L21.38 7Q21.92 6.60 22.40 6.60L22.40 6.60L22.40 6.60Q22.89 6.60 23.17 6.90L23.17 6.90L23.17 6.90Q23.46 7.20 23.46 7.69L23.46 7.69L23.46 7.69Q23.46 8.12 23.24 8.70L23.24 8.70L23.24 8.70Q23.02 9.28 22.95 9.52L22.95 9.52L23.95 8.19L24.51 7.52L24.51 7.52Q25.02 6.95 25.40 6.77L25.40 6.77L25.40 6.77Q25.79 6.60 26.03 6.60L26.03 6.60L26.03 6.60Q26.27 6.60 26.51 6.69L26.51 6.69L26.51 6.69Q26.74 6.77 26.91 6.94L26.91 6.94L26.91 6.94Q27.25 7.27 27.25 7.83L27.25 7.83L27.25 7.83Q27.25 8.36 27.01 8.92L27.01 8.92L27.01 8.92Q26.76 9.48 26.58 9.84L26.58 9.84L26.58 9.84Q26.39 10.20 26.22 10.56L26.22 10.56L26.22 10.56Q25.72 11.65 25.72 12.17L25.72 12.17L25.72 12.17Q25.72 12.54 26.02 12.54L26.02 12.54L26.02 12.54Q26.31 12.54 26.55 12.42L26.55 12.42L26.55 12.42Q26.78 12.30 26.85 12.30L26.85 12.30L26.85 12.30Q27.00 12.30 27.00 12.44L27.00 12.44L27.00 12.44Q27.00 13.05 26.37 13.46L26.37 13.46L26.37 13.46Q25.96 13.74 25.61 13.74L25.61 13.74L25.61 13.74Q25.27 13.74 25.05 13.66L25.05 13.66L25.05 13.66Q24.84 13.58 24.67 13.40L24.67 13.40L24.67 13.40Q24.29 13.00 24.29 12.41L24.29 12.41L24.29 12.41Q24.29 11.81 24.44 11.31L24.44 11.31L24.44 11.31Q24.59 10.81 24.79 10.35L24.79 10.35L24.79 10.35Q25.00 9.88 25.21 9.48L25.21 9.48L25.21 9.48Q25.42 9.09 25.53 8.86L25.53 8.86L25.53 8.86Q25.74 8.38 25.74 8.16L25.74 8.16L25.74 8.16Q25.74 7.89 25.46 7.89L25.46 7.89L25.46 7.89Q25.09 7.89 24.14 9.11L24.14 9.11L24.14 9.11Q23.41 10.06 23.13 10.48L23.13 10.48L22.66 11.16L22.66 11.16Q22.26 11.92 22.05 12.41L22.05 12.41L21.70 13.21L21.70 13.21Q21.57 13.50 21.48 13.62L21.48 13.62L21.48 13.62Q21.38 13.74 21.21 13.74L21.21 13.74L21.21 13.74Q21.04 13.74 20.88 13.69L20.88 13.69L20.88 13.69Q20.72 13.63 20.60 13.54L20.60 13.54L20.60 13.54Q20.34 13.34 20.34 13.12L20.34 13.12L20.34 13.12Q20.34 12.90 20.48 12.51L20.48 12.51L20.48 12.51Q20.63 12.13 20.85 11.65L20.85 11.65L21.81 9.63L21.81 9.63Q22.32 8.50 22.32 8.19L22.32 8.19L22.32 8.19Q22.32 7.89 22.04 7.89ZM22.72 9.82L22.72 9.82L22.72 9.82Q22.72 9.82 22.72 9.81L22.72 9.81L22.73 9.80L22.73 9.80Q22.72 9.81 22.72 9.82ZM28.32 11.28L28.32 11.28L28.32 11.28Q28.35 10.68 28.52 10.14L28.52 10.14L28.52 10.14Q28.69 9.60 28.98 9.09L28.98 9.09L28.98 9.09Q29.26 8.58 29.65 8.12L29.65 8.12L29.65 8.12Q30.04 7.67 30.49 7.33L30.49 7.33L30.49 7.33Q31.47 6.60 32.46 6.60L32.46 6.60L32.46 6.60Q33.63 6.60 34.02 7.56L34.02 7.56L34.02 7.56Q34.16 7.89 34.15 8.34L34.15 8.34L34.15 8.34Q34.15 8.78 33.98 9.16L33.98 9.16L33.98 9.16Q33.82 9.54 33.53 9.85L33.53 9.85L33.53 9.85Q33.24 10.17 32.84 10.41L32.84 10.41L32.84 10.41Q32.44 10.66 31.96 10.83L31.96 10.83L31.96 10.83Q30.99 11.17 29.89 11.18L29.89 11.18L29.89 11.18Q29.86 11.28 29.85 11.47L29.85 11.47L29.85 11.47Q29.85 11.66 29.89 11.90L29.89 11.90L29.89 11.90Q29.94 12.13 30.06 12.32L30.06 12.32L30.06 12.32Q30.30 12.73 30.77 12.73L30.77 12.73L30.77 12.73Q31.56 12.73 32.31 12.26L32.31 12.26L32.31 12.26Q32.58 12.11 32.75 11.94L32.75 11.94L32.75 11.94Q32.92 11.77 33.04 11.77L33.04 11.77L33.04 11.77Q33.16 11.77 33.25 11.92L33.25 11.92L33.25 11.92Q33.35 12.07 33.35 12.25L33.35 12.25L33.35 12.25Q33.35 12.61 33.14 12.88L33.14 12.88L33.14 12.88Q32.28 13.74 30.58 13.74L30.58 13.74L30.58 13.74Q29.57 13.74 28.96 13.14L28.96 13.14L28.96 13.14Q28.28 12.46 28.32 11.28ZM32.31 7.51L32.31 7.51L32.31 7.51Q31.60 7.51 30.93 8.49L30.93 8.49L30.93 8.49Q30.37 9.34 30.03 10.50L30.03 10.50L30.03 10.50Q31.17 10.38 32.01 9.60L32.01 9.60L32.01 9.60Q32.79 8.86 32.79 8.18L32.79 8.18L32.79 8.18Q32.79 7.51 32.31 7.51ZM41.73 12.29L41.73 12.29L41.73 12.29Q41.87 12.29 41.87 12.44L41.87 12.44L41.87 12.44Q41.87 13.03 41.26 13.45L41.26 13.45L41.26 13.45Q40.86 13.74 40.50 13.74L40.50 13.74L40.50 13.74Q40.14 13.74 39.93 13.66L39.93 13.66L39.93 13.66Q39.72 13.58 39.55 13.40L39.55 13.40L39.55 13.40Q39.16 12.99 39.16 12.27L39.16 12.27L39.16 12.27Q39.16 12.13 39.22 11.81L39.22 11.81L39.22 11.81Q38.66 12.67 38.27 13.02L38.27 13.02L38.27 13.02Q37.47 13.74 36.70 13.74L36.70 13.74L36.70 13.74Q35.49 13.74 35.12 12.65L35.12 12.65L35.12 12.65Q34.98 12.24 34.98 11.63L34.98 11.63L34.98 11.63Q34.98 11.03 35.16 10.40L35.16 10.40L35.16 10.40Q35.35 9.78 35.67 9.22L35.67 9.22L35.67 9.22Q35.98 8.66 36.40 8.18L36.40 8.18L36.40 8.18Q36.83 7.70 37.29 7.34L37.29 7.34L37.29 7.34Q38.29 6.60 39.09 6.60L39.09 6.60L39.09 6.60Q39.90 6.60 40.39 7.25L40.39 7.25L40.39 7.25Q41.58 3.18 42.18 2.45L42.18 2.45L42.18 2.45Q42.43 2.15 42.71 2.15L42.71 2.15L42.71 2.15Q43.18 2.15 43.42 2.41L43.42 2.41L43.42 2.41Q43.49 2.50 43.49 2.59L43.49 2.59L43.49 2.59Q43.49 2.68 43.38 2.92L43.38 2.92L43.38 2.92Q43.27 3.16 43.06 3.69L43.06 3.69L43.06 3.69Q42.45 5.30 42.21 6.04L42.21 6.04L42.21 6.04Q41.58 7.95 41.36 8.67L41.36 8.67L40.98 9.93L40.98 9.93Q40.50 11.62 40.50 12.08L40.50 12.08L40.50 12.08Q40.50 12.54 40.83 12.54L40.83 12.54L40.83 12.54Q41.14 12.54 41.32 12.46L41.32 12.46L41.58 12.33L41.58 12.33Q41.66 12.29 41.73 12.29ZM37.03 12.71L37.03 12.71L37.03 12.71Q37.73 12.71 38.64 11.34L38.64 11.34L38.64 11.34Q39.59 9.92 39.97 8.24L39.97 8.24L39.97 8.24Q39.94 7.78 39.58 7.56L39.58 7.56L39.58 7.56Q39.46 7.49 39.21 7.49L39.21 7.49L39.21 7.49Q38.96 7.49 38.63 7.67L38.63 7.67L38.63 7.67Q38.29 7.85 37.98 8.16L37.98 8.16L37.98 8.16Q37.67 8.46 37.40 8.88L37.40 8.88L37.40 8.88Q37.13 9.29 36.93 9.75L36.93 9.75L36.93 9.75Q36.50 10.77 36.50 11.74L36.50 11.74L36.50 11.74Q36.50 12.71 37.03 12.71ZM53.63 4.56L53.63 4.56L53.63 4.56Q53.63 3.99 52.95 3.99L52.95 3.99L52.95 3.99Q51.65 3.99 50.58 5.20L50.58 5.20L50.58 5.20Q49.95 5.91 49.70 6.73L49.70 6.73L49.70 6.73Q49.57 7.14 49.57 7.44L49.57 7.44L49.57 7.44Q49.57 7.75 49.65 7.93L49.65 7.93L49.65 7.93Q49.72 8.11 49.83 8.23L49.83 8.23L49.83 8.23Q50.06 8.48 50.37 8.42L50.37 8.42L50.37 8.42Q50.70 8.29 50.96 8.29L50.96 8.29L50.96 8.29Q51.21 8.29 51.37 8.35L51.37 8.35L51.37 8.35Q51.52 8.42 51.62 8.51L51.62 8.51L51.62 8.51Q51.82 8.70 51.82 8.88L51.82 8.88L51.82 8.88Q51.82 9.23 51.58 9.24L51.58 9.24L51.58 9.24Q51.23 9.28 50.84 9.44L50.84 9.44L50.84 9.44Q50.45 9.60 50.05 9.87L50.05 9.87L50.05 9.87Q49.66 10.13 49.35 10.46L49.35 10.46L49.35 10.46Q48.64 11.21 48.64 11.97L48.64 11.97L48.64 11.97Q48.64 12.33 48.82 12.52L48.82 12.52L48.82 12.52Q49.10 12.84 49.50 12.84L49.50 12.84L49.50 12.84Q49.90 12.84 50.27 12.68L50.27 12.68L50.27 12.68Q50.65 12.53 50.96 12.31L50.96 12.31L50.96 12.31Q51.43 11.98 51.86 11.46L51.86 11.46L51.86 11.46Q52.08 11.20 52.25 11.20L52.25 11.20L52.25 11.20Q52.41 11.20 52.50 11.39L52.50 11.39L52.50 11.39Q52.58 11.59 52.58 11.81L52.58 11.81L52.58 11.81Q52.58 12.26 52.41 12.47L52.41 12.47L52.41 12.47Q52.24 12.69 51.98 12.90L51.98 12.90L51.98 12.90Q51.73 13.12 51.37 13.30L51.37 13.30L51.37 13.30Q50.52 13.74 49.54 13.74L49.54 13.74L49.54 13.74Q47.89 13.74 47.28 12.66L47.28 12.66L47.28 12.66Q47.07 12.26 47.07 11.83L47.07 11.83L47.07 11.83Q47.07 11.41 47.19 11.05L47.19 11.05L47.19 11.05Q47.32 10.68 47.52 10.37L47.52 10.37L47.52 10.37Q47.71 10.06 47.96 9.81L47.96 9.81L47.96 9.81Q48.21 9.56 48.45 9.38L48.45 9.38L48.45 9.38Q48.92 9.01 49.23 8.96L49.23 8.96L49.23 8.96Q48.45 8.65 48.19 7.77L48.19 7.77L48.19 7.77Q48.10 7.48 48.10 7.07L48.10 7.07L48.10 7.07Q48.10 6.66 48.26 6.16L48.26 6.16L48.26 6.16Q48.42 5.67 48.71 5.21L48.71 5.21L48.71 5.21Q48.99 4.76 49.39 4.36L49.39 4.36L49.39 4.36Q49.79 3.96 50.26 3.67L50.26 3.67L50.26 3.67Q51.30 3.04 52.44 3.04L52.44 3.04L52.44 3.04Q53.63 3.04 54.22 3.64L54.22 3.64L54.22 3.64Q54.69 4.12 54.69 4.86L54.69 4.86L54.69 4.86Q54.69 5.71 53.98 6.58L53.98 6.58L53.98 6.58Q53.55 7.10 53.21 7.28L53.21 7.28L53.21 7.28Q52.86 7.46 52.67 7.48L52.67 7.48L52.67 7.48Q52.47 7.50 52.31 7.43L52.31 7.43L52.31 7.43Q52.14 7.37 52.01 7.26L52.01 7.26L52.01 7.26Q51.73 7.01 51.73 6.80L51.73 6.80L51.73 6.80Q51.73 6.55 51.91 6.41L51.91 6.41L52.53 5.97L52.53 5.97Q53.63 5.16 53.63 4.56ZM54.47 13.40L54.47 13.40L54.47 13.40Q54.30 13.22 54.19 12.94L54.19 12.94L54.19 12.94Q54.09 12.67 54.09 12.30L54.09 12.30L54.09 12.30Q54.09 11.94 54.25 11.32L54.25 11.32L54.25 11.32Q54.42 10.71 54.68 9.92L54.68 9.92L55.25 8.22L55.25 8.22Q56.48 4.66 56.67 2.72L56.67 2.72L56.67 2.72Q56.73 2.15 57.23 2.15L57.23 2.15L57.23 2.15Q57.54 2.15 57.75 2.30L57.75 2.30L57.75 2.30Q58.15 2.60 58.13 2.97L58.13 2.97L58.13 2.97Q58.12 3.34 58.00 3.87L58.00 3.87L58.00 3.87Q57.89 4.40 57.70 5.02L57.70 5.02L57.70 5.02Q57.52 5.65 57.28 6.34L57.28 6.34L56.33 9.12L56.33 9.12Q55.52 11.48 55.52 12.17L55.52 12.17L55.52 12.17Q55.52 12.54 55.82 12.54L55.82 12.54L55.82 12.54Q56.11 12.54 56.35 12.42L56.35 12.42L56.35 12.42Q56.58 12.30 56.65 12.30L56.65 12.30L56.65 12.30Q56.79 12.30 56.79 12.44L56.79 12.44L56.79 12.44Q56.79 13.05 56.17 13.46L56.17 13.46L56.17 13.46Q55.75 13.74 55.41 13.74L55.41 13.74L55.41 13.74Q55.06 13.74 54.85 13.66L54.85 13.66L54.85 13.66Q54.64 13.58 54.47 13.40ZM63.28 11.85L63.28 11.85L63.28 11.85Q63.28 12.48 63.72 12.48L63.72 12.48L63.72 12.48Q64.03 12.48 64.23 12.39L64.23 12.39L64.23 12.39Q64.44 12.29 64.50 12.29L64.50 12.29L64.50 12.29Q64.65 12.29 64.65 12.44L64.65 12.44L64.65 12.44Q64.65 13.03 64.03 13.45L64.03 13.45L64.03 13.45Q63.38 13.90 62.71 13.67L62.71 13.67L62.71 13.67Q62.26 13.51 62.05 13.00L62.05 13.00L62.05 13.00Q61.95 12.73 61.95 12.51L61.95 12.51L61.95 12.51Q61.95 12.15 62.02 11.76L62.02 11.76L62.02 11.76Q61.38 13.06 60.44 13.55L60.44 13.55L60.44 13.55Q60.06 13.74 59.64 13.74L59.64 13.74L59.64 13.74Q59.21 13.74 58.90 13.57L58.90 13.57L58.90 13.57Q58.59 13.39 58.37 13.08L58.37 13.08L58.37 13.08Q57.93 12.44 57.97 11.47L57.97 11.47L57.97 11.47Q58.01 10.25 58.69 9.08L58.69 9.08L58.69 9.08Q59.31 7.99 60.26 7.30L60.26 7.30L60.26 7.30Q61.21 6.60 62.04 6.60L62.04 6.60L62.04 6.60Q62.86 6.60 63.37 7.36L63.37 7.36L63.37 7.36Q63.84 6.60 64.20 6.60L64.20 6.60L64.20 6.60Q64.59 6.60 64.79 6.74L64.79 6.74L64.79 6.74Q65.17 7.01 65.06 7.22L65.06 7.22L65.06 7.22Q63.34 10.73 63.29 11.59L63.29 11.59L63.29 11.59Q63.28 11.72 63.28 11.85ZM59.49 11.88L59.49 11.88L59.49 11.88Q59.49 12.70 60.01 12.70L60.01 12.70L60.01 12.70Q60.42 12.70 61.00 12.02L61.00 12.02L61.00 12.02Q61.87 11.01 62.53 9.31L62.53 9.31L62.53 9.31Q62.74 8.78 62.88 8.24L62.88 8.24L62.88 8.24Q62.86 7.78 62.49 7.56L62.49 7.56L62.49 7.56Q62.37 7.49 62.13 7.49L62.13 7.49L62.13 7.49Q61.89 7.49 61.56 7.66L61.56 7.66L61.56 7.66Q61.24 7.84 60.93 8.15L60.93 8.15L60.93 8.15Q60.63 8.46 60.36 8.88L60.36 8.88L60.36 8.88Q60.10 9.30 59.90 9.79L59.90 9.79L59.90 9.79Q59.49 10.84 59.49 11.88ZM65.65 13.51L65.65 13.51L65.65 13.51Q65.51 13.41 65.43 13.28L65.43 13.28L65.43 13.28Q65.34 13.15 65.34 13.06L65.34 13.06L65.34 13.06Q65.33 12.97 65.38 12.83L65.38 12.83L65.38 12.83Q65.42 12.70 65.50 12.51L65.50 12.51L65.50 12.51Q66.89 9.08 66.89 7.90L66.89 7.90L66.89 7.90Q66.87 7.57 66.66 7.44L66.66 7.44L66.53 7.34L66.53 7.34Q66.47 7.29 66.46 7.17L66.46 7.17L66.46 7.17Q66.46 7.05 66.55 6.95L66.55 6.95L66.55 6.95Q66.64 6.84 66.78 6.75L66.78 6.75L66.78 6.75Q67.07 6.60 67.39 6.60L67.39 6.60L67.39 6.60Q67.70 6.60 67.87 6.67L67.87 6.67L67.87 6.67Q68.04 6.73 68.17 6.85L68.17 6.85L68.17 6.85Q68.43 7.10 68.43 7.37L68.43 7.37L68.43 7.37Q68.43 7.64 68.37 7.92L68.37 7.92L68.37 7.92Q68.30 8.20 68.22 8.47L68.22 8.47L68.22 8.47Q68.13 8.74 68.04 8.99L68.04 8.99L68.04 8.99Q67.95 9.23 67.92 9.34L67.92 9.34L67.92 9.34Q67.87 9.58 67.88 9.65L67.88 9.65L67.88 9.65Q68.04 9.50 68.08 9.37L68.08 9.37L68.35 8.86L68.35 8.86Q69.23 7.26 70.08 6.74L70.08 6.74L70.08 6.74Q70.33 6.60 70.67 6.60L70.67 6.60L70.67 6.60Q71.02 6.60 71.23 6.84L71.23 6.84L71.23 6.84Q71.44 7.08 71.45 7.38L71.45 7.38L71.45 7.38Q71.46 7.67 71.41 7.86L71.41 7.86L71.41 7.86Q71.36 8.06 71.26 8.23L71.26 8.23L71.26 8.23Q71.03 8.61 70.71 8.61L70.71 8.61L70.71 8.61Q70.62 8.61 70.55 8.55L70.55 8.55L70.40 8.42L70.40 8.42Q70.17 8.22 69.96 8.22L69.96 8.22L69.96 8.22Q69.75 8.22 69.46 8.50L69.46 8.50L69.46 8.50Q69.16 8.77 68.84 9.20L68.84 9.20L68.84 9.20Q67.76 10.63 67.07 12.40L67.07 12.40L66.77 13.19L66.77 13.19Q66.66 13.49 66.57 13.61L66.57 13.61L66.57 13.61Q66.48 13.74 66.31 13.74L66.31 13.74L66.31 13.74Q66.13 13.74 65.96 13.68L65.96 13.68L65.96 13.68Q65.78 13.61 65.65 13.51ZM76.57 11.85L76.57 11.85L76.57 11.85Q76.57 12.48 77.01 12.48L77.01 12.48L77.01 12.48Q77.32 12.48 77.52 12.39L77.52 12.39L77.52 12.39Q77.72 12.29 77.79 12.29L77.79 12.29L77.79 12.29Q77.94 12.29 77.94 12.44L77.94 12.44L77.94 12.44Q77.94 13.03 77.32 13.45L77.32 13.45L77.32 13.45Q76.67 13.90 76.00 13.67L76.00 13.67L76.00 13.67Q75.55 13.51 75.34 13.00L75.34 13.00L75.34 13.00Q75.24 12.73 75.24 12.51L75.24 12.51L75.24 12.51Q75.24 12.15 75.30 11.76L75.30 11.76L75.30 11.76Q74.67 13.06 73.73 13.55L73.73 13.55L73.73 13.55Q73.35 13.74 72.93 13.74L72.93 13.74L72.93 13.74Q72.50 13.74 72.19 13.57L72.19 13.57L72.19 13.57Q71.88 13.39 71.66 13.08L71.66 13.08L71.66 13.08Q71.22 12.44 71.26 11.47L71.26 11.47L71.26 11.47Q71.30 10.25 71.98 9.08L71.98 9.08L71.98 9.08Q72.60 7.99 73.55 7.30L73.55 7.30L73.55 7.30Q74.50 6.60 75.33 6.60L75.33 6.60L75.33 6.60Q76.15 6.60 76.66 7.36L76.66 7.36L76.66 7.36Q77.13 6.60 77.49 6.60L77.49 6.60L77.49 6.60Q77.88 6.60 78.08 6.74L78.08 6.74L78.08 6.74Q78.46 7.01 78.35 7.22L78.35 7.22L78.35 7.22Q76.63 10.73 76.58 11.59L76.58 11.59L76.58 11.59Q76.57 11.72 76.57 11.85ZM72.78 11.88L72.78 11.88L72.78 11.88Q72.78 12.70 73.30 12.70L73.30 12.70L73.30 12.70Q73.71 12.70 74.29 12.02L74.29 12.02L74.29 12.02Q75.15 11.01 75.82 9.31L75.82 9.31L75.82 9.31Q76.03 8.78 76.17 8.24L76.17 8.24L76.17 8.24Q76.15 7.78 75.78 7.56L75.78 7.56L75.78 7.56Q75.66 7.49 75.42 7.49L75.42 7.49L75.42 7.49Q75.17 7.49 74.85 7.66L74.85 7.66L74.85 7.66Q74.53 7.84 74.22 8.15L74.22 8.15L74.22 8.15Q73.92 8.46 73.65 8.88L73.65 8.88L73.65 8.88Q73.39 9.30 73.19 9.79L73.19 9.79L73.19 9.79Q72.78 10.84 72.78 11.88ZM78.98 11.73L78.98 11.73L78.98 11.73Q78.98 11.33 79.03 10.97L79.03 10.97L79.03 10.97Q79.09 10.61 79.18 10.24L79.18 10.24L79.18 10.24Q79.28 9.87 79.39 9.50L79.39 9.50L80.16 7.16L80.16 7.16Q81.07 4.32 81.30 2.72L81.30 2.72L81.30 2.72Q81.38 2.15 81.86 2.15L81.86 2.15L81.86 2.15Q82.15 2.15 82.35 2.30L82.35 2.30L82.35 2.30Q82.71 2.59 82.70 2.92L82.70 2.92L82.70 2.92Q82.69 3.25 82.60 3.66L82.60 3.66L82.60 3.66Q82.52 4.07 82.38 4.55L82.38 4.55L82.38 4.55Q82.25 5.02 82.08 5.55L82.08 5.55L82.08 5.55Q81.62 6.90 81.40 7.51L81.40 7.51L81.01 8.52L81.01 8.52Q81.60 7.60 81.98 7.26L81.98 7.26L81.98 7.26Q82.73 6.60 83.54 6.60L83.54 6.60L83.54 6.60Q84.74 6.60 85.13 7.85L85.13 7.85L85.13 7.85Q85.26 8.28 85.26 8.92L85.26 8.92L85.26 8.92Q85.26 9.56 85.08 10.20L85.08 10.20L85.08 10.20Q84.89 10.83 84.57 11.37L84.57 11.37L84.57 11.37Q84.25 11.92 83.82 12.35L83.82 12.35L83.82 12.35Q83.39 12.79 82.92 13.10L82.92 13.10L82.92 13.10Q81.92 13.74 80.99 13.74L80.99 13.74L80.99 13.74Q80.04 13.74 79.50 13.17L79.50 13.17L79.50 13.17Q78.98 12.59 78.98 11.73ZM80.89 12.85L80.89 12.85L80.89 12.85Q81.53 12.85 82.20 12.28L82.20 12.28L82.20 12.28Q83.21 11.40 83.56 9.78L83.56 9.78L83.56 9.78Q83.67 9.24 83.67 8.66L83.67 8.66L83.67 8.66Q83.67 8.09 83.54 7.85L83.54 7.85L83.54 7.85Q83.41 7.62 83.14 7.62L83.14 7.62L83.14 7.62Q82.87 7.62 82.58 7.84L82.58 7.84L82.58 7.84Q82.28 8.06 81.96 8.42L81.96 8.42L81.96 8.42Q81.64 8.78 81.33 9.25L81.33 9.25L81.33 9.25Q81.01 9.71 80.76 10.21L80.76 10.21L80.76 10.21Q80.21 11.31 80.21 12.08L80.21 12.08L80.21 12.08Q80.21 12.85 80.89 12.85ZM86.26 13.01L86.26 13.01L86.26 13.01Q86.18 12.78 86.18 12.49L86.18 12.49L86.18 12.49Q86.18 12.20 86.28 11.84L86.28 11.84L86.28 11.84Q86.38 11.48 86.54 11.09L86.54 11.09L86.54 11.09Q86.69 10.71 86.88 10.29L86.88 10.29L87.25 9.47L87.25 9.47Q87.96 7.90 87.77 7.60L87.77 7.60L87.77 7.60Q87.69 7.47 87.47 7.34L87.47 7.34L87.47 7.34Q87.38 7.29 87.38 7.17L87.38 7.17L87.38 7.17Q87.38 7.05 87.48 6.95L87.48 6.95L87.48 6.95Q87.58 6.84 87.74 6.75L87.74 6.75L87.74 6.75Q88.07 6.60 88.41 6.60L88.41 6.60L88.41 6.60Q88.74 6.60 88.92 6.67L88.92 6.67L88.92 6.67Q89.09 6.74 89.20 6.85L89.20 6.85L89.20 6.85Q89.43 7.08 89.43 7.35L89.43 7.35L89.43 7.35Q89.43 7.62 89.34 7.96L89.34 7.96L89.34 7.96Q89.25 8.30 89.11 8.70L89.11 8.70L89.11 8.70Q88.96 9.09 88.79 9.52L88.79 9.52L88.79 9.52Q88.32 10.62 88.16 10.98L88.16 10.98L87.90 11.50L87.90 11.50Q87.69 11.98 87.69 12.17L87.69 12.17L87.69 12.17Q87.69 12.36 87.75 12.44L87.75 12.44L87.75 12.44Q87.81 12.52 87.98 12.52L87.98 12.52L87.98 12.52Q88.14 12.52 88.33 12.39L88.33 12.39L88.33 12.39Q88.53 12.27 88.75 12.07L88.75 12.07L88.75 12.07Q88.98 11.86 89.22 11.59L89.22 11.59L89.22 11.59Q89.46 11.32 89.69 11.03L89.69 11.03L89.69 11.03Q90.30 10.27 90.60 9.73L90.60 9.73L90.60 9.73Q92.07 7.01 92.16 6.89L92.16 6.89L92.16 6.89Q92.39 6.60 92.62 6.60L92.62 6.60L92.62 6.60Q92.85 6.60 93.02 6.65L93.02 6.65L93.02 6.65Q93.19 6.70 93.31 6.79L93.31 6.79L93.31 6.79Q93.58 6.99 93.48 7.24L93.48 7.24L93.48 7.24Q93.37 7.49 93.22 7.92L93.22 7.92L93.22 7.92Q91.92 11.68 91.54 12.61L91.54 12.61L91.54 12.61Q91.15 13.54 90.86 14.11L90.86 14.11L90.86 14.11Q90.58 14.67 90.19 15.24L90.19 15.24L90.19 15.24Q89.80 15.82 89.37 16.29L89.37 16.29L89.37 16.29Q88.37 17.36 87.49 17.43L87.49 17.43L87.49 17.43Q87.16 17.46 86.96 17.34L86.96 17.34L86.96 17.34Q86.62 17.13 86.62 16.95L86.62 16.95L86.62 16.95Q86.62 16.76 86.93 16.69L86.93 16.69L86.93 16.69Q87.24 16.62 87.57 16.40L87.57 16.40L87.57 16.40Q87.90 16.19 88.21 15.90L88.21 15.90L88.21 15.90Q89.11 15.04 89.61 14.03L89.61 14.03L89.61 14.03Q90.04 13.14 90.30 12.35L90.30 12.35L90.83 10.72L90.83 10.72Q90.63 10.96 90.39 11.28L90.39 11.28L89.90 11.94L89.90 11.94Q89.26 12.75 88.83 13.09L88.83 13.09L88.83 13.09Q88.03 13.74 87.39 13.74L87.39 13.74L87.39 13.74Q86.54 13.74 86.26 13.01Z"></path></g><!----><!----></svg>